<svg width="32" height="28" viewBox="0 0 32 28" fill="none" xmlns="http://www.w3.org/2000/svg">
<g id="wp-short-icon" clip-path="url(#clip0_19_380)">
<path id="Symbol" d="M25.5786 3.19387C25.5786 4.93868 24.152 6.35258 22.3915 6.35258C20.631 6.35258 19.2043 4.93868 19.2043 3.19387C19.2043 1.44906 20.631 0.0351562 22.3915 0.0351562C24.152 0.0351562 25.5786 1.44906 25.5786 3.19387ZM28.7657 6.35258C27.0052 6.35258 25.5786 7.76648 25.5786 9.51129C25.5786 11.2561 27.0052 12.67 28.7657 12.67C30.5262 12.67 31.9528 11.2561 31.9528 9.51129C31.9528 7.76648 30.5262 6.35258 28.7657 6.35258ZM19.2043 24.5828C19.2043 26.3277 20.631 27.7416 22.3915 27.7416C24.152 27.7416 25.5786 26.3277 25.5786 24.5828C25.5786 22.838 24.152 21.4241 22.3915 21.4241C20.631 21.4241 19.2043 22.838 19.2043 24.5828ZM25.5786 18.2654C25.5786 20.0102 27.0052 21.4241 28.7657 21.4241C30.5262 21.4241 31.9528 20.0102 31.9528 18.2654C31.9528 16.5206 30.5262 15.1067 28.7657 15.1067C27.0052 15.1067 25.5786 16.5206 25.5786 18.2654ZM9.71884 27.7416L21.4505 16.1145C22.695 14.8811 22.695 12.8806 21.4505 11.6472L9.73402 0.0351562L5.22651 4.50248L11.5097 10.7296H0.0664062V17.0471H11.4945L5.21134 23.2742L9.71884 27.7416Z" fill="url(#paint0_linear_19_380)"/>
</g>
<defs>
<linearGradient id="paint0_linear_19_380" x1="0.0738125" y1="13.8913" x2="31.9491" y2="13.8913" gradientUnits="userSpaceOnUse">
<stop offset="0.3216" stop-color="#ED0A72"/>
<stop offset="0.6834" stop-color="#FD6601"/>
</linearGradient>
<clipPath id="clip0_19_380">
<rect width="32" height="28" fill="white"/>
</clipPath>
</defs>
</svg>
